<svg id='tent' width="473" height="287" viewBox="0 0 473 287" version="1.1" xmlns="http://www.w3.org/2000/svg" xmlns:xlink="http://www.w3.org/1999/xlink">
<title>Tent and Fire</title>
<g class='123' id="Canvas2" transform="translate(718 340)">
<g id="Tent and Fire">
<g id="Tent Poles Right">
<g id="Vector 5">
<use xlink:href="#path0_stroke" transform="matrix(-1 0 0 1 -266.678 -129)"/>
</g>
<g id="Vector 6">
<use xlink:href="#path1_stroke" transform="matrix(-1 0 0 1 -247 -117.052)"/>
</g>
</g>
<g id="Tent Poles">
<g id="Vector 5">
<use xlink:href="#path2_stroke" transform="translate(-692.553 -131)"/>
</g>
<g id="Vector 6">
<use xlink:href="#path3_stroke" transform="translate(-716 -119.098)"/>
</g>
</g>
<g id="Campfire">
<g id="Vector 5">
<use xlink:href="#path4_fill" transform="translate(-677.377 -322)" fill="#EB5757"/>
<use xlink:href="#path5_stroke" transform="translate(-677.377 -322)"/>
</g>
<g id="Vector 5.1">
<use xlink:href="#path6_fill" transform="translate(-670 -308)" fill="#F2994A"/>
</g>
<g id="Component">
<g id="Ellipse">
<use xlink:href="#path7_fill" transform="matrix(0.929453 -0.36894 0.370092 0.928995 -702 -240.368)"/>
</g>
<g id="Ellipse">
<use xlink:href="#path8_fill" transform="matrix(0.929453 -0.36894 0.370092 0.928995 -636.081 -266.609)"/>
</g>
<g id="Vector 5">
<use xlink:href="#path9_stroke" transform="matrix(0.929453 -0.36894 0.370092 0.928995 -695.088 -240.958)"/>
</g>
</g>
<g id="Component">
<g id="Ellipse">
<use xlink:href="#path10_fill" transform="matrix(-0.928399 -0.371586 -0.367453 0.930042 -617 -240.459)"/>
</g>
<g id="Ellipse">
<use xlink:href="#path11_fill" transform="matrix(-0.928399 -0.371586 -0.367453 0.930042 -682.187 -266.624)"/>
</g>
<g id="Vector 5">
<use xlink:href="#path12_stroke" transform="matrix(-0.928399 -0.371586 -0.367453 0.930042 -623.835 -241.048)"/>
</g>
</g>
</g>
<g id="Tent">
<use xlink:href="#path13_fill" transform="translate(-660 -338)" fill="#FF5E5E"/>
<use xlink:href="#path14_stroke" transform="translate(-660 -338)"/>
</g>
</g>
</g>
<defs>
<path id="path0_stroke" d="M 2.56266 35.3523L 0.603907 35.7564L 0.678759 36.1192L 0.878597 36.4312L 2.56266 35.3523ZM 29.0056 72.9211L 4.24672 34.2734L 0.878597 36.4312L 25.6375 75.0789L 29.0056 72.9211ZM 4.52141 34.9482C 3.20352 28.5644 1.84518 19.3017 2.01285 11.9438C 2.09381 8.23757 2.5623 5.33557 3.418 3.59115C 3.8316 2.74798 4.25317 2.34592 4.5983 2.1662C 4.90144 2.00834 5.37519 1.90016 6.20433 2.13953L 7.31384 -1.70351C 5.70905 -2.16682 4.14316 -2.10665 2.7508 -1.38158C 1.40041 -0.678369 0.470603 0.517082 -0.173206 1.82955C -1.43233 4.3964 -1.90279 8.03816 -1.98619 11.8565C -2.14724 19.5478 -0.735941 29.2577 0.603907 35.7564L 4.52141 34.9482Z"/>
<path id="path1_stroke" d="M 23.159 21.4455C 20.4048 16.379 15.9455 9.14922 11.6823 4.18182C 9.57481 1.73099 7.29294 -0.439519 5.08968 -1.42016C 3.9546 -1.92537 2.62535 -2.21058 1.28491 -1.81386C -0.0953785 -1.40535 -1.09208 -0.393192 -1.76857 0.887914L 1.76857 2.7557C 2.09923 2.12951 2.3562 2.04059 2.42008 2.02168C 2.5238 1.99099 2.82919 1.95204 3.46316 2.23421C 4.79801 2.82834 6.59192 4.39712 8.6494 6.7898C 12.7161 11.5094 16.9434 18.3836 19.6445 23.3554L 23.159 21.4455Z"/>
<path id="path2_stroke" d="M 3.05338 35.2172L 1.11162 35.6963L 1.21172 36.102L 1.46584 36.4336L 3.05338 35.2172ZM 34.1409 72.5007L 4.64093 34.0007L 1.46584 36.4336L 30.9658 74.9336L 34.1409 72.5007ZM 4.99514 34.738C 3.42719 28.3887 1.81467 19.2039 2.0152 11.9069C 2.11106 8.23763 2.66473 5.40517 3.65809 3.71207C 4.14187 2.85398 4.48926 2.48679 5.17657 2.22455C 5.7035 1.99513 6.45888 1.88974 7.5841 2.16134L 8.52266 -1.72699C 6.74788 -2.15538 5.07305 -2.09306 3.5798 -1.44292C 2.24693 -0.825608 0.984163 0.398604 0.20805 1.68791C -1.31839 4.28961 -1.88347 7.9759 -1.98344 11.8024C -2.17457 19.4971 -0.487096 29.2123 1.11162 35.6963L 4.99514 34.738Z"/>
<path id="path3_stroke" d="M 27.1769 21.2249C 23.8943 16.1763 18.5823 8.97533 13.5067 4.0309C 10.9822 1.5763 8.30753 -0.533167 5.79284 -1.46895C 4.51141 -1.94581 3.10808 -2.17972 1.72682 -1.83793C 0.289998 -1.48239 -0.859739 -0.569271 -1.69098 0.746858L 1.69098 2.88283C 2.05974 2.29896 2.40375 2.11521 2.68763 2.04496C 3.02708 1.96097 3.5714 1.97237 4.39779 2.27989C 6.09872 2.91285 8.28035 4.52839 10.7183 6.89878C 15.5677 11.6044 20.6057 18.4534 23.8231 23.4048L 27.1769 21.2249Z"/>
<path id="path4_fill" d="M 1.37715 32L 14.2139 0L 21.7139 13.5L 25.7139 8L 37.2139 32C 40.8772 38.5 35.8547 57 18.2139 57C 0.213884 57 -2.1228 40.5 1.37715 32Z"/>
<path id="path5_stroke" d="M 14.2139 0L 15.9623 -0.971279L 13.9219 -4.64391L 12.3577 -0.744621L 14.2139 0ZM 1.37715 32L 3.22651 32.7615L 3.22997 32.7531L 3.23336 32.7446L 1.37715 32ZM 37.2139 32L 35.4102 32.8642L 35.4389 32.9241L 35.4715 32.982L 37.2139 32ZM 25.7139 8L 27.5175 7.13576L 26.0686 4.11191L 24.0964 6.82366L 25.7139 8ZM 21.7139 13.5L 19.9656 14.4713L 21.4878 17.2113L 23.3314 14.6763L 21.7139 13.5ZM 12.3577 -0.744621L -0.479069 31.2554L 3.23336 32.7446L 16.0702 0.744621L 12.3577 -0.744621ZM -0.472212 31.2385C -2.41369 35.9536 -2.73444 42.7864 -0.0825582 48.5263C 2.65665 54.4552 8.47162 59 18.2139 59L 18.2139 55C 9.95615 55 5.60278 51.2948 3.54863 46.8487C 1.40715 42.2136 1.66804 36.5464 3.22651 32.7615L -0.472212 31.2385ZM 18.2139 59C 27.8593 59 34.1483 53.8898 37.4537 47.9043C 39.0915 44.9386 40.0084 41.7463 40.2638 38.8225C 40.5154 35.9415 40.1396 33.1178 38.9562 31.018L 35.4715 32.982C 36.1198 34.1322 36.4899 36.0585 36.2789 38.4744C 36.0716 40.8475 35.3172 43.4989 33.9522 45.9707C 31.2519 50.8602 26.2093 55 18.2139 55L 18.2139 59ZM 39.0175 31.1358L 27.5175 7.13576L 23.9103 8.86424L 35.4102 32.8642L 39.0175 31.1358ZM 24.0964 6.82366L 20.0964 12.3237L 23.3314 14.6763L 27.3314 9.17634L 24.0964 6.82366ZM 23.4622 12.5287L 15.9623 -0.971279L 12.4656 0.971279L 19.9656 14.4713L 23.4622 12.5287Z"/>
<path id="path6_fill" d="M 0.862105 20.7719L 8.89804 0L 13.5931 8.76316L 16.0971 5.19298L 23.2962 20.7719C 25.5894 24.9912 22.4453 37 11.402 37C 0.133893 37 -1.32889 26.2895 0.862105 20.7719Z"/>
<path id="path7_fill" d="M 14.7149 7.26494C 14.7149 11.2772 11.4208 14.5299 7.35744 14.5299C 3.29404 14.5299 0 11.2772 0 7.26494C 0 3.25262 3.29404 0 7.35744 0C 11.4208 0 14.7149 3.25262 14.7149 7.26494Z"/>
<path id="path8_fill" d="M 14.6128 7.35289C 14.6128 11.4138 11.3416 14.7058 7.30638 14.7058C 3.27118 14.7058 0 11.4138 0 7.35289C 0 3.292 3.27118 0 7.30638 0C 11.3416 0 14.6128 3.292 14.6128 7.35289Z"/>
<path id="path9_stroke" d="M 0 2L 16.8177 2L 16.8177 -2L 0 -2L 0 2ZM 18.4994 2L 52.1348 2L 52.1348 -2L 18.4994 -2L 18.4994 2ZM 53.8166 2L 70.6343 2L 70.6343 -2L 53.8166 -2L 53.8166 2ZM 0 12.5404L 16.8177 12.5404L 16.8177 8.54041L 0 8.54041L 0 12.5404ZM 18.4994 12.5404L 52.1348 12.5404L 52.1348 8.54041L 18.4994 8.54041L 18.4994 12.5404ZM 53.8166 12.5404L 70.6343 12.5404L 70.6343 8.54041L 53.8166 8.54041L 53.8166 12.5404Z"/>
<path id="path10_fill" d="M 14.568 7.23585C 14.568 11.2321 11.3068 14.4717 7.284 14.4717C 3.26116 14.4717 0 11.2321 0 7.23585C 0 3.2396 3.26116 0 7.284 0C 11.3068 0 14.568 3.2396 14.568 7.23585Z"/>
<path id="path11_fill" d="M 14.4669 7.32345C 14.4669 11.3681 11.2284 14.6469 7.23345 14.6469C 3.23852 14.6469 0 11.3681 0 7.32345C 0 3.27882 3.23852 0 7.23345 0C 11.2284 0 14.4669 3.27882 14.4669 7.32345Z"/>
<path id="path12_stroke" d="M 0 2L 16.6498 2L 16.6498 -2L 0 -2L 0 2ZM 18.3148 2L 51.6144 2L 51.6144 -2L 18.3148 -2L 18.3148 2ZM 53.2794 2L 69.9292 2L 69.9292 -2L 53.2794 -2L 53.2794 2ZM 0 12.4982L 16.6498 12.4982L 16.6498 8.49821L 0 8.49821L 0 12.4982ZM 18.3148 12.4982L 51.6144 12.4982L 51.6144 8.49821L 18.3148 8.49821L 18.3148 12.4982ZM 53.2794 12.4982L 69.9292 12.4982L 69.9292 8.49821L 53.2794 8.49821L 53.2794 12.4982Z"/>
<path id="path13_fill" d="M 96 0L 201 0L 325 0L 368.5 280.5L 186.5 280.5L 0 280.5L 96 0Z"/>
<path id="path14_stroke" d="M 96 0L 96 -2L 94.5706 -2L 94.1077 -0.647614L 96 0ZM 0 280.5L -1.89225 279.852L -2.79838 282.5L 0 282.5L 0 280.5ZM 368.5 280.5L 368.5 282.5L 370.834 282.5L 370.476 280.194L 368.5 280.5ZM 325 0L 326.976 -0.306497L 326.714 -2L 325 -2L 325 0ZM 201 -2L 96 -2L 96 2L 201 2L 201 -2ZM 94.1077 -0.647614L -1.89225 279.852L 1.89225 281.148L 97.8923 0.647614L 94.1077 -0.647614ZM 1.48102 281.844L 187.981 76.3441L 185.019 73.6559L -1.48102 279.156L 1.48102 281.844ZM 188.464 75.3796L 202.964 0.379637L 199.036 -0.379637L 184.536 74.6204L 188.464 75.3796ZM 185.003 76.326L 367.003 281.826L 369.997 279.174L 187.997 73.674L 185.003 76.326ZM 184.5 75L 184.5 280.5L 188.5 280.5L 188.5 75L 184.5 75ZM 368.5 278.5L 186.5 278.5L 186.5 282.5L 368.5 282.5L 368.5 278.5ZM 186.5 278.5L 0 278.5L 0 282.5L 186.5 282.5L 186.5 278.5ZM 201 2L 325 2L 325 -2L 201 -2L 201 2ZM 323.024 0.306497L 366.524 280.806L 370.476 280.194L 326.976 -0.306497L 323.024 0.306497Z"/>
</defs>
</svg>
