<svg xmlns="http://www.w3.org/2000/svg" xmlns:xlink="http://www.w3.org/1999/xlink" version="1.1" x="0px" y="0px" viewBox="0 0 100 125" enable-background="new 0 0 100 100" xml:space="preserve"><path d="M54.7,98.9c3.8,0,7.4-1.9,9.6-5.1l8.7-12.8l0,0c2.8-3.8,4.7-7.9,5.8-11.8c3.1-3,4.6-8,5.3-10.6c1.2-4.2,2.4-10.2-0.8-14.5  c-0.1-0.2-0.3-0.3-0.4-0.5c1.5-7,4.2-27-11-36.2c0,0,3.3-2.6,3-6.5c0,0-18.1,2-26.8,0.2c-8.7-1.8-18,4.9-19.6,11.5  c-0.1,0.1-0.1,0.1-0.2,0.2c-1.6,0.1-15.4,1.6-11.6,26.5c0.1,1.4,0.3,2.8,0.5,4.2c-0.1,0.2-0.3,0.3-0.4,0.5c-3.2,4.2-2,10.3-0.8,14.5  c0.7,2.6,2.2,7.6,5.3,10.6c1,3.9,3,8,5.7,11.8l0,0l8.7,12.8c2.2,3.2,5.7,5.1,9.6,5.1L54.7,98.9z M41.6,77.9l-0.3-0.1  c4.4-0.5,7.4-2.4,8.7-4.3c1.3,1.8,4.1,3.6,8.3,4.2l0,0C53,79.8,47,79.9,41.6,77.9z M24,47c0.1,0,0.3,0,0.4,0v0  c0,0,1.9-25.7,22.7-16.8c10.9,4.6,18.9,4.4,24.2,3.2c6.6,4.6,4.7,12.2,4.3,13.4c0,0.1,0,0.1-0.1,0.2c0.1,0,0.3,0,0.4,0  c2.1,0,4.3,1.7,2,10c-1.8,6.5-3.5,8.3-4.8,8.4c-0.3,1.9-0.9,3.8-1.7,5.8c-0.7,0.4-1.8,0.7-3.2,0.7c-3.7,0-6.6-4.6-11.8-4.6  c-1.4,0-3.5,0.2-6.4,2.3c-2.9-2.1-5-2.3-6.4-2.3c-5.1,0-8.1,4.6-11.8,4.6c-1.5,0-2.5-0.3-3.3-0.7c-0.8-2-1.4-4-1.7-5.8  c-1.3-0.1-3-1.9-4.8-8.4C19.7,48.7,21.9,47,24,47z"/></svg>
